<svg version="1.1" preserveAspectRatio="none" xmlns="http://www.w3.org/2000/svg" width="1200" height="1200" viewBox="0 0 500 500"><rect width="100%" height="100%" fill="#121212" fill-opacity="1"/><svg viewBox="-18.3473 -43.8291 370.1364 324.6033" width="333" height="292.03531157702946" x="83.5px" y="103.9823px" xmlns="http://www.w3.org/2000/svg" xmlns:xlink="http://www.w3.org/1999/xlink" preserveAspectRatio="none"><defs/><style>.companyName {fill:#E3E3E3;fill-opacity:1;}.icon1 {fill:#F1EC40;fill-opacity:1;}.icon2 {fill:#555555;fill-opacity:1;}.icon3 {fill:#AAAAAA;fill-opacity:1;}.icon3-str {stroke:#AAAAAA;stroke-opacity:1;}.text {fill:#E3E3E3;fill-opacity:1;}</style><g opacity="1" transform="rotate(0 -18.3473 262.7742)">
<svg width="370.1364" height="18" x="-18.3473" y="262.7742" version="1.1" preserveAspectRatio="none" viewBox="2.12 -28.88 605.36 29.44">
  <g transform="matrix(1 0 0 1 0 0)" class="text"><path id="id-6izo4zJp21" d="M14.84-28.88Q17.24-28.88 18.92-28.20Q20.60-27.52 22.20-26.28L22.20-26.28Q22.64-25.92 22.96-25.92L22.96-25.92Q23.76-25.92 24-28.32L24-28.32L24.92-28.32Q24.76-25.72 24.76-19.12L24.76-19.12L23.84-19.12Q23.40-21.72 23.04-22.86Q22.68-24 21.84-25.04L21.84-25.04Q20.64-26.60 18.78-27.38Q16.92-28.16 14.76-28.16L14.76-28.16Q12.16-28.16 10.22-26.44Q8.28-24.72 7.20-21.54Q6.12-18.36 6.12-14.08L6.12-14.08Q6.12-9.72 7.28-6.60Q8.44-3.48 10.50-1.86Q12.56-0.24 15.16-0.24L15.16-0.24Q17.16-0.24 19.04-1Q20.92-1.76 22-3.28L22-3.28Q22.80-4.40 23.16-5.68Q23.52-6.96 23.84-9.60L23.84-9.60L24.76-9.60Q24.76-2.72 24.92 0L24.92 0L24 0Q23.88-1.28 23.66-1.82Q23.44-2.36 23.04-2.36L23.04-2.36Q22.72-2.36 22.20-2.04L22.20-2.04Q20.40-0.76 18.76-0.10Q17.12 0.56 14.80 0.56L14.80 0.56Q11 0.56 8.14-1.16Q5.28-2.88 3.70-6.14Q2.12-9.40 2.12-13.92L2.12-13.92Q2.12-18.32 3.74-21.72Q5.36-25.12 8.26-27Q11.16-28.88 14.84-28.88L14.84-28.88Z M46.08-12.96Q50.24-12.44 52.04-10.70Q53.84-8.96 53.84-6.56L53.84-6.56Q53.84-4.64 52.74-3.16Q51.64-1.68 49.56-0.84Q47.48 0 44.64 0L44.64 0Q43.64 0 42.92-0.04L42.92-0.04Q40.44-0.12 38.16-0.12L38.16-0.12Q34.88-0.12 33.20 0L33.20 0L33.20-0.80Q34.64-0.88 35.30-1.12Q35.96-1.36 36.20-2.04Q36.44-2.72 36.44-4.24L36.44-4.24L36.44-20.08Q36.44-21.60 36.20-22.28Q35.96-22.96 35.30-23.20Q34.64-23.44 33.20-23.52L33.20-23.52L33.20-24.32Q34.88-24.20 38.08-24.20L38.08-24.20L42.16-24.24Q42.84-24.28 43.72-24.28L43.72-24.28Q47.60-24.28 49.68-22.78Q51.76-21.28 51.76-18.80L51.76-18.80Q51.76-16.88 50.40-15.36Q49.04-13.84 46.08-13.04L46.08-13.04L46.08-12.96ZM42.72-23.52Q41.64-23.52 41.10-23.24Q40.56-22.96 40.36-22.24Q40.16-21.52 40.16-20.08L40.16-20.08L40.16-13.04L42.44-13.04Q45.52-13.04 46.72-14.44Q47.92-15.84 47.92-18.36L47.92-18.36Q47.92-20.96 46.68-22.24Q45.44-23.52 42.72-23.52L42.72-23.52ZM42.76-0.92Q46.40-0.92 48.12-2.38Q49.84-3.84 49.84-6.72L49.84-6.72Q49.84-9.52 48.24-10.94Q46.64-12.36 43.12-12.36L43.12-12.36L40.16-12.36L40.16-4.24Q40.16-2.80 40.36-2.12Q40.56-1.44 41.10-1.18Q41.64-0.92 42.76-0.92L42.76-0.92Z M71.20-24.32L71.20-23.52Q69.76-23.44 69.10-23.20Q68.44-22.96 68.20-22.28Q67.96-21.60 67.96-20.08L67.96-20.08L67.96-4.24Q67.96-2.72 68.20-2.04Q68.44-1.36 69.10-1.12Q69.76-0.88 71.20-0.80L71.20-0.80L71.20 0Q69.36-0.12 66.12-0.12L66.12-0.12Q62.68-0.12 61 0L61 0L61-0.80Q62.44-0.88 63.10-1.12Q63.76-1.36 64-2.04Q64.24-2.72 64.24-4.24L64.24-4.24L64.24-20.08Q64.24-21.60 64-22.28Q63.76-22.96 63.10-23.20Q62.44-23.44 61-23.52L61-23.52L61-24.32Q62.68-24.20 66.12-24.20L66.12-24.20Q69.32-24.20 71.20-24.32L71.20-24.32Z M100.76-24.32Q100.48-21.68 100.48-19.60L100.48-19.60Q100.48-17.52 100.60-16.32L100.60-16.32L99.68-16.32Q99.44-19.12 98.92-20.60Q98.40-22.08 97.24-22.74Q96.08-23.40 93.92-23.40L93.92-23.40L91.36-23.40L91.36-4.64Q91.36-2.96 91.68-2.20Q92-1.44 92.80-1.16Q93.60-0.88 95.40-0.80L95.40-0.80L95.40 0Q93.32-0.12 89.52-0.12L89.52-0.12Q85.52-0.12 83.60 0L83.60 0L83.60-0.80Q85.40-0.88 86.20-1.16Q87-1.44 87.32-2.20Q87.64-2.96 87.64-4.64L87.64-4.64L87.64-23.40L85.08-23.40Q82.92-23.40 81.76-22.74Q80.60-22.08 80.08-20.60Q79.56-19.12 79.32-16.32L79.32-16.32L78.40-16.32Q78.52-17.60 78.52-19.60L78.52-19.60Q78.52-21.68 78.24-24.32L78.24-24.32Q81.56-24.20 89.52-24.20L89.52-24.20Q97.44-24.20 100.76-24.32L100.76-24.32Z M128.08-24.32L128.08-23.52Q126.64-23.44 125.98-23.20Q125.32-22.96 125.08-22.28Q124.84-21.60 124.84-20.08L124.84-20.08L124.84-4.24Q124.84-2.72 125.08-2.04Q125.32-1.36 125.98-1.12Q126.64-0.88 128.08-0.80L128.08-0.80L128.08 0Q126.40-0.12 123.04-0.12L123.04-0.12Q119.76-0.12 117.88 0L117.88 0L117.88-0.80Q119.32-0.88 119.98-1.12Q120.64-1.36 120.88-2.04Q121.12-2.72 121.12-4.24L121.12-4.24L121.12-20.08Q121.12-21.60 120.90-22.32Q120.68-23.04 120.10-23.28Q119.52-23.52 118.28-23.52L118.28-23.52L117.76-23.52Q116.52-23.52 115.98-23.26Q115.44-23 115.24-22.34Q115.04-21.68 114.92-20.08L114.92-20.08L114.68-16.92Q114.28-11.28 113.74-7.80Q113.20-4.32 111.76-1.88Q110.32 0.56 107.64 0.56L107.64 0.56Q106.24 0.56 105.18-0.12Q104.12-0.80 104.12-2.16L104.12-2.16Q104.12-3.20 104.78-3.82Q105.44-4.44 106.48-4.44L106.48-4.44Q107.40-4.44 107.96-3.96Q108.52-3.48 108.52-2.60L108.52-2.60Q108.52-1.24 106.80-0.24L106.80-0.24Q107.16-0.20 107.76-0.20L107.76-0.20Q110.16-0.20 111.44-3.06Q112.72-5.92 113.18-9.80Q113.64-13.68 114-20.08L114-20.08L114.04-20.96Q114.04-22 113.76-22.50Q113.48-23 112.80-23.22Q112.12-23.44 110.76-23.52L110.76-23.52L110.76-24.32Q112.44-24.20 114.64-24.20L114.64-24.20Q115.44-24.20 116.48-24.28L116.48-24.28L118.20-24.32L120.28-24.28Q122.12-24.20 123.48-24.20L123.48-24.20Q126.40-24.20 128.08-24.32L128.08-24.32Z M147.84-24.88Q151.52-24.88 154.30-23.42Q157.08-21.96 158.60-19.14Q160.12-16.32 160.12-12.40L160.12-12.40Q160.12-8.56 158.54-5.62Q156.96-2.68 154.16-1.06Q151.36 0.56 147.80 0.56L147.80 0.56Q144.12 0.56 141.34-0.90Q138.56-2.36 137.04-5.18Q135.52-8 135.52-11.92L135.52-11.92Q135.52-15.76 137.10-18.70Q138.68-21.64 141.48-23.26Q144.28-24.88 147.84-24.88L147.84-24.88ZM147.68-24.16Q145.24-24.16 143.38-22.62Q141.52-21.08 140.52-18.34Q139.52-15.60 139.52-12.08L139.52-12.08Q139.52-8.52 140.64-5.80Q141.76-3.08 143.68-1.62Q145.60-0.16 147.96-0.16L147.96-0.16Q150.40-0.16 152.26-1.70Q154.12-3.24 155.12-5.98Q156.12-8.72 156.12-12.24L156.12-12.24Q156.12-15.80 155-18.52Q153.88-21.24 151.96-22.70Q150.04-24.16 147.68-24.16L147.68-24.16Z M194.76-12.96Q198.92-12.44 200.72-10.70Q202.52-8.96 202.52-6.56L202.52-6.56Q202.52-4.64 201.42-3.16Q200.32-1.68 198.24-0.84Q196.16 0 193.32 0L193.32 0Q192.32 0 191.60-0.04L191.60-0.04Q189.12-0.12 186.84-0.12L186.84-0.12Q183.56-0.12 181.88 0L181.88 0L181.88-0.80Q183.32-0.88 183.98-1.12Q184.64-1.36 184.88-2.04Q185.12-2.72 185.12-4.24L185.12-4.24L185.12-20.08Q185.12-21.60 184.88-22.28Q184.64-22.96 183.98-23.20Q183.32-23.44 181.88-23.52L181.88-23.52L181.88-24.32Q183.56-24.20 186.76-24.20L186.76-24.20L190.84-24.24Q191.52-24.28 192.40-24.28L192.40-24.28Q196.28-24.28 198.36-22.78Q200.44-21.28 200.44-18.80L200.44-18.80Q200.44-16.88 199.08-15.36Q197.72-13.84 194.76-13.04L194.76-13.04L194.76-12.96ZM191.40-23.52Q190.32-23.52 189.78-23.24Q189.24-22.96 189.04-22.24Q188.84-21.52 188.84-20.08L188.84-20.08L188.84-13.04L191.12-13.04Q194.20-13.04 195.40-14.44Q196.60-15.84 196.60-18.36L196.60-18.36Q196.60-20.96 195.36-22.24Q194.12-23.52 191.40-23.52L191.40-23.52ZM191.44-0.92Q195.08-0.92 196.80-2.38Q198.52-3.84 198.52-6.72L198.52-6.72Q198.52-9.52 196.92-10.94Q195.32-12.36 191.80-12.36L191.80-12.36L188.84-12.36L188.84-4.24Q188.84-2.80 189.04-2.12Q189.24-1.44 189.78-1.18Q190.32-0.92 191.44-0.92L191.44-0.92Z M230.08-3.36Q231.16-0.88 232.84-0.80L232.84-0.80L232.84 0Q231.24-0.12 228.56-0.12L228.56-0.12Q225.12-0.12 223.44 0L223.44 0L223.44-0.80Q224.92-0.88 225.62-1.20Q226.32-1.52 226.32-2.28L226.32-2.28Q226.32-2.92 225.76-4.16L225.76-4.16L223.72-8.72L214-8.72L212.64-5.72Q211.96-4.16 211.96-3.16L211.96-3.16Q211.96-2.12 212.70-1.54Q213.44-0.96 215.08-0.80L215.08-0.80L215.08 0Q213.88-0.12 211.44-0.12L211.44-0.12Q209-0.12 207.96 0L207.96 0L207.96-0.80Q209.04-1.08 209.80-2.02Q210.56-2.96 211.24-4.52L211.24-4.52L220.08-24.52L220.72-24.52L230.08-3.36ZM214.32-9.52L223.40-9.52L218.88-19.68L214.32-9.52Z M274.12-24.32L274.12-23.52Q272.68-23.44 272.02-23.20Q271.36-22.96 271.12-22.28Q270.88-21.60 270.88-20.08L270.88-20.08L270.88-4.24Q270.88-2.72 271.12-2.04Q271.36-1.36 272.02-1.12Q272.68-0.88 274.12-0.80L274.12-0.80L274.12 0Q272.44-0.12 269-0.12L269-0.12L265.88-0.08Q263.64 0 262.48 0L262.48 0Q260.92 0 258.60-0.08L258.60-0.08L256.32-0.12L253.96-0.08Q251.64 0 250.00 0L250.00 0Q248.76 0 246.52-0.08L246.52-0.08L243.52-0.12Q240.08-0.12 238.40 0L238.40 0L238.40-0.80Q239.84-0.88 240.50-1.12Q241.16-1.36 241.40-2.04Q241.64-2.72 241.64-4.24L241.64-4.24L241.64-20.08Q241.64-21.60 241.40-22.28Q241.16-22.96 240.50-23.20Q239.84-23.44 238.40-23.52L238.40-23.52L238.40-24.32Q240.08-24.20 243.52-24.20L243.52-24.20Q246.44-24.20 248.20-24.32L248.20-24.32L248.20-23.52Q246.92-23.44 246.36-23.20Q245.80-22.96 245.58-22.28Q245.36-21.60 245.36-20.08L245.36-20.08L245.36-4.24Q245.36-2.72 245.60-2.02Q245.84-1.32 246.52-1.06Q247.20-0.80 248.60-0.80L248.60-0.80L251.16-0.80Q252.56-0.80 253.24-1.06Q253.92-1.32 254.16-2.02Q254.40-2.72 254.40-4.24L254.40-4.24L254.40-20.08Q254.40-21.60 254.20-22.28Q254.00-22.96 253.42-23.20Q252.84-23.44 251.56-23.52L251.56-23.52L251.56-24.32Q253.32-24.20 256.24-24.20L256.24-24.20Q259.40-24.20 260.96-24.32L260.96-24.32L260.96-23.52Q259.68-23.44 259.10-23.20Q258.52-22.96 258.32-22.28Q258.12-21.60 258.12-20.08L258.12-20.08L258.12-4.24Q258.12-2.72 258.36-2.02Q258.60-1.32 259.28-1.06Q259.96-0.80 261.36-0.80L261.36-0.80L263.92-0.80Q265.32-0.80 266-1.06Q266.68-1.32 266.92-2.02Q267.16-2.72 267.16-4.24L267.16-4.24L267.16-20.08Q267.16-21.60 266.96-22.28Q266.76-22.96 266.18-23.20Q265.60-23.44 264.32-23.52L264.32-23.52L264.32-24.32Q266.08-24.20 269-24.20L269-24.20Q272.44-24.20 274.12-24.32L274.12-24.32Z M293.88-24.88Q297.56-24.88 300.34-23.42Q303.12-21.96 304.64-19.14Q306.16-16.32 306.16-12.40L306.16-12.40Q306.16-8.56 304.58-5.62Q303-2.68 300.20-1.06Q297.40 0.56 293.84 0.56L293.84 0.56Q290.16 0.56 287.38-0.90Q284.60-2.36 283.08-5.18Q281.56-8 281.56-11.92L281.56-11.92Q281.56-15.76 283.14-18.70Q284.72-21.64 287.52-23.26Q290.32-24.88 293.88-24.88L293.88-24.88ZM293.72-24.16Q291.28-24.16 289.42-22.62Q287.56-21.08 286.56-18.34Q285.56-15.60 285.56-12.08L285.56-12.08Q285.56-8.52 286.68-5.80Q287.80-3.08 289.72-1.62Q291.64-0.16 294-0.16L294-0.16Q296.44-0.16 298.30-1.70Q300.16-3.24 301.16-5.98Q302.16-8.72 302.16-12.24L302.16-12.24Q302.16-15.80 301.04-18.52Q299.92-21.24 298-22.70Q296.08-24.16 293.72-24.16L293.72-24.16Z M331.96-24.32Q331.68-21.48 331.68-19.20L331.68-19.20Q331.68-17.20 331.80-15.92L331.80-15.92L330.88-15.92Q330.56-19 330.08-20.50Q329.60-22 328.40-22.70Q327.20-23.40 324.72-23.40L324.72-23.40L323.80-23.40Q322.36-23.40 321.70-23.18Q321.04-22.96 320.80-22.28Q320.56-21.60 320.56-20.08L320.56-20.08L320.56-4.24Q320.56-2.72 320.88-2.04Q321.20-1.36 322.00-1.12Q322.80-0.88 324.60-0.80L324.60-0.80L324.60 0Q322.52-0.12 318.72-0.12L318.72-0.12Q315.28-0.12 313.60 0L313.60 0L313.60-0.80Q315.04-0.88 315.70-1.12Q316.36-1.36 316.60-2.04Q316.84-2.72 316.84-4.24L316.84-4.24L316.84-20.08Q316.84-21.60 316.60-22.28Q316.36-22.96 315.70-23.20Q315.04-23.44 313.60-23.52L313.60-23.52L313.60-24.32L315.04-24.28Q317.36-24.20 318.68-24.20L318.68-24.20L321.20-24.20L325.20-24.20Q329.96-24.20 331.96-24.32L331.96-24.32Z M351.76-24.88Q355.44-24.88 358.22-23.42Q361.00-21.96 362.52-19.14Q364.04-16.32 364.04-12.40L364.04-12.40Q364.04-8.56 362.46-5.62Q360.88-2.68 358.08-1.06Q355.28 0.56 351.72 0.56L351.72 0.56Q348.04 0.56 345.26-0.90Q342.48-2.36 340.96-5.18Q339.44-8 339.44-11.92L339.44-11.92Q339.44-15.76 341.02-18.70Q342.60-21.64 345.40-23.26Q348.20-24.88 351.76-24.88L351.76-24.88ZM351.60-24.16Q349.16-24.16 347.30-22.62Q345.44-21.08 344.44-18.34Q343.44-15.60 343.44-12.08L343.44-12.08Q343.44-8.52 344.56-5.80Q345.68-3.08 347.60-1.62Q349.52-0.16 351.88-0.16L351.88-0.16Q354.32-0.16 356.18-1.70Q358.04-3.24 359.04-5.98Q360.04-8.72 360.04-12.24L360.04-12.24Q360.04-15.80 358.92-18.52Q357.80-21.24 355.88-22.70Q353.96-24.16 351.60-24.16L351.60-24.16Z M416.48-23.52Q415.04-23.44 414.38-23.20Q413.72-22.96 413.48-22.28Q413.24-21.60 413.24-20.08L413.24-20.08L413.24-4.24Q413.24-2.72 413.48-2.04Q413.72-1.36 414.38-1.12Q415.04-0.88 416.48-0.80L416.48-0.80L416.48 0Q414.64-0.12 411.40-0.12L411.40-0.12Q407.96-0.12 406.28 0L406.28 0L406.28-0.80Q407.72-0.88 408.38-1.12Q409.04-1.36 409.28-2.04Q409.52-2.72 409.52-4.24L409.52-4.24L409.52-21.80L399.88 0.20L399.24 0.20L389.96-21.76L389.96-4.64Q389.96-3.08 390.22-2.32Q390.48-1.56 391.24-1.22Q392.00-0.88 393.60-0.80L393.60-0.80L393.60 0Q392.16-0.12 389.52-0.12L389.52-0.12Q387.12-0.12 385.80 0L385.80 0L385.80-0.80Q387.20-0.88 387.88-1.22Q388.56-1.56 388.80-2.34Q389.04-3.12 389.04-4.64L389.04-4.64L389.04-20.08Q389.04-21.60 388.80-22.28Q388.56-22.96 387.90-23.20Q387.24-23.44 385.80-23.52L385.80-23.52L385.80-24.32Q387.12-24.20 389.52-24.20L389.52-24.20Q391.44-24.20 392.92-24.32L392.92-24.32L400.96-4.84L409.52-24.20L411.40-24.20Q414.64-24.20 416.48-24.32L416.48-24.32L416.48-23.52Z M436.24-24.88Q439.92-24.88 442.70-23.42Q445.48-21.96 447.00-19.14Q448.52-16.32 448.52-12.40L448.52-12.40Q448.52-8.56 446.94-5.62Q445.36-2.68 442.56-1.06Q439.76 0.56 436.20 0.56L436.20 0.56Q432.52 0.56 429.74-0.90Q426.96-2.36 425.44-5.18Q423.92-8 423.92-11.92L423.92-11.92Q423.92-15.76 425.50-18.70Q427.08-21.64 429.88-23.26Q432.68-24.88 436.24-24.88L436.24-24.88ZM436.08-24.16Q433.64-24.16 431.78-22.62Q429.92-21.08 428.92-18.34Q427.92-15.60 427.92-12.08L427.92-12.08Q427.92-8.52 429.04-5.80Q430.16-3.08 432.08-1.62Q434.00-0.16 436.36-0.16L436.36-0.16Q438.80-0.16 440.66-1.70Q442.52-3.24 443.52-5.98Q444.52-8.72 444.52-12.24L444.52-12.24Q444.52-15.80 443.40-18.52Q442.28-21.24 440.36-22.70Q438.44-24.16 436.08-24.16L436.08-24.16Z M486.64-23.52Q485.20-23.44 484.54-23.20Q483.88-22.96 483.64-22.28Q483.40-21.60 483.40-20.08L483.40-20.08L483.40-4.24Q483.40-2.72 483.64-2.04Q483.88-1.36 484.54-1.12Q485.20-0.88 486.64-0.80L486.64-0.80L486.64 0Q484.80-0.12 481.56-0.12L481.56-0.12Q478.12-0.12 476.44 0L476.44 0L476.44-0.80Q477.88-0.88 478.54-1.12Q479.20-1.36 479.44-2.04Q479.68-2.72 479.68-4.24L479.68-4.24L479.68-21.80L470.04 0.20L469.40 0.20L460.12-21.76L460.12-4.64Q460.12-3.08 460.38-2.32Q460.64-1.56 461.40-1.22Q462.16-0.88 463.76-0.80L463.76-0.80L463.76 0Q462.32-0.12 459.68-0.12L459.68-0.12Q457.28-0.12 455.96 0L455.96 0L455.96-0.80Q457.36-0.88 458.04-1.22Q458.72-1.56 458.96-2.34Q459.20-3.12 459.20-4.64L459.20-4.64L459.20-20.08Q459.20-21.60 458.96-22.28Q458.72-22.96 458.06-23.20Q457.40-23.44 455.96-23.52L455.96-23.52L455.96-24.32Q457.28-24.20 459.68-24.20L459.68-24.20Q461.60-24.20 463.08-24.32L463.08-24.32L471.12-4.84L479.68-24.20L481.56-24.20Q484.80-24.20 486.64-24.32L486.64-24.32L486.64-23.52Z M513.68-4.72Q513.68-2.64 513.96 0L513.96 0Q511.36-0.12 505.20-0.12L505.20-0.12Q497.80-0.12 494.00 0L494.00 0L494.00-0.80Q495.44-0.88 496.10-1.12Q496.76-1.36 497.00-2.04Q497.24-2.72 497.24-4.24L497.24-4.24L497.24-20.08Q497.24-21.60 497.00-22.28Q496.76-22.96 496.10-23.20Q495.44-23.44 494.00-23.52L494.00-23.52L494.00-24.32Q497.80-24.20 505.20-24.20L505.20-24.20Q510.80-24.20 513.16-24.32L513.16-24.32Q512.88-21.92 512.88-20L512.88-20Q512.88-18.44 513.00-17.52L513.00-17.52L512.08-17.52Q511.80-20.80 510.70-22.10Q509.60-23.40 507.12-23.40L507.12-23.40L504.20-23.40Q502.76-23.40 502.10-23.18Q501.44-22.96 501.20-22.28Q500.96-21.60 500.96-20.08L500.96-20.08L500.96-12.64L504.28-12.64Q505.56-12.64 506.24-13.30Q506.92-13.96 507.16-14.74Q507.40-15.52 507.60-16.72L507.60-16.72L508.52-16.72Q508.40-15.36 508.40-13.76L508.40-13.76L508.40-12.24Q508.40-10.68 508.64-7.76L508.64-7.76L507.72-7.76Q507.48-9.68 506.80-10.76Q506.12-11.84 504.28-11.84L504.28-11.84L500.96-11.84L500.96-4.24Q500.96-2.72 501.20-2.04Q501.44-1.36 502.10-1.14Q502.76-0.92 504.20-0.92L504.20-0.92L507.12-0.92Q509.12-0.92 510.28-1.56Q511.44-2.20 512.04-3.62Q512.64-5.04 512.88-7.60L512.88-7.60L513.80-7.60Q513.68-6.52 513.68-4.72L513.68-4.72Z M547.92-24.32L547.92-23.52Q546.48-23.44 545.82-23.20Q545.16-22.96 544.92-22.28Q544.68-21.60 544.68-20.08L544.68-20.08L544.68-4.24Q544.68-2.72 544.92-2.04Q545.16-1.36 545.82-1.12Q546.48-0.88 547.92-0.80L547.92-0.80L547.92 0Q546.24-0.12 542.80-0.12L542.80-0.12Q539.60-0.12 537.72 0L537.72 0L537.72-0.80Q539.16-0.88 539.82-1.12Q540.48-1.36 540.72-2.04Q540.96-2.72 540.96-4.24L540.96-4.24L540.96-12.20L528.76-12.20L528.76-4.24Q528.76-2.72 529.00-2.04Q529.24-1.36 529.90-1.12Q530.56-0.88 532.00-0.80L532.00-0.80L532.00 0Q530.16-0.12 526.92-0.12L526.92-0.12Q523.48-0.12 521.80 0L521.80 0L521.80-0.80Q523.24-0.88 523.90-1.12Q524.56-1.36 524.80-2.04Q525.04-2.72 525.04-4.24L525.04-4.24L525.04-20.08Q525.04-21.60 524.80-22.28Q524.56-22.96 523.90-23.20Q523.24-23.44 521.80-23.52L521.80-23.52L521.80-24.32Q523.48-24.20 526.92-24.20L526.92-24.20Q530.12-24.20 532.00-24.32L532.00-24.32L532.00-23.52Q530.56-23.44 529.90-23.20Q529.24-22.96 529.00-22.28Q528.76-21.60 528.76-20.08L528.76-20.08L528.76-13L540.96-13L540.96-20.08Q540.96-21.60 540.72-22.28Q540.48-22.96 539.82-23.20Q539.16-23.44 537.72-23.52L537.72-23.52L537.72-24.32Q539.56-24.20 542.80-24.20L542.80-24.20Q546.24-24.20 547.92-24.32L547.92-24.32Z M577.48-24.32Q577.20-21.68 577.20-19.60L577.20-19.60Q577.20-17.52 577.32-16.32L577.32-16.32L576.40-16.32Q576.16-19.12 575.64-20.60Q575.12-22.08 573.96-22.74Q572.80-23.40 570.64-23.40L570.64-23.40L568.08-23.40L568.08-4.64Q568.08-2.96 568.40-2.20Q568.72-1.44 569.52-1.16Q570.32-0.88 572.12-0.80L572.12-0.80L572.12 0Q570.04-0.12 566.24-0.12L566.24-0.12Q562.24-0.12 560.32 0L560.32 0L560.32-0.80Q562.12-0.88 562.92-1.16Q563.72-1.44 564.04-2.20Q564.36-2.96 564.36-4.64L564.36-4.64L564.36-23.40L561.80-23.40Q559.64-23.40 558.48-22.74Q557.32-22.08 556.80-20.60Q556.28-19.12 556.04-16.32L556.04-16.32L555.12-16.32Q555.24-17.60 555.24-19.60L555.24-19.60Q555.24-21.68 554.96-24.32L554.96-24.32Q558.28-24.20 566.24-24.20L566.24-24.20Q574.16-24.20 577.48-24.32L577.48-24.32Z M604.40-24.20Q605.96-24.20 607.48-24.32L607.48-24.32L607.48-23.48Q606.84-23.32 606.26-22.68Q605.68-22.04 604.92-20.76L604.92-20.76L596.04-5.80L594.56-3.28Q593.40-1.28 592.36-0.44L592.36-0.44Q591.08 0.56 589.32 0.56L589.32 0.56Q588.08 0.56 587.30-0.08Q586.52-0.72 586.52-1.84L586.52-1.84Q586.52-2.80 587.12-3.38Q587.72-3.96 588.64-3.96L588.64-3.96Q589.52-3.96 590.10-3.46Q590.68-2.96 590.68-2.08L590.68-2.08Q590.68-1.48 590.38-1.04Q590.08-0.60 589.60-0.32L589.60-0.32Q589.68-0.28 589.84-0.28L589.84-0.28Q591.88-0.28 593.60-3.28L593.60-3.28L594.88-5.44L585.48-21.24Q584.12-23.48 583.16-23.48L583.16-23.48L583.16-24.32Q585.32-24.20 586.72-24.20L586.72-24.20Q589.76-24.20 592.28-24.32L592.28-24.32L592.28-23.48Q590.92-23.48 590.20-23.26Q589.48-23.04 589.48-22.28L589.48-22.28Q589.48-21.60 590.16-20.40L590.16-20.40L596.96-8.92L602.88-19.04Q603.80-20.60 603.80-21.60L603.80-21.60Q603.80-23.28 601.00-23.48L601.00-23.48L601.00-24.32Q603.28-24.20 604.40-24.20L604.40-24.20Z"/></g>
</svg>
</g><g opacity="1" transform="rotate(0 -7.7588 218.7742)">
<svg width="348.9593" height="24" x="-7.7588" y="218.7742" version="1.1" preserveAspectRatio="none" viewBox="2.9492 -28.3984 418.59369999999996 28.7891">
  <g transform="matrix(1 0 0 1 0 0)" class="companyName"><path id="id-D6z1nYkh14" d="M28.67-5.08L28.67 0L5.51 0Q4.96 0 4.49-0.20Q4.02-0.39 3.68-0.73Q3.34-1.07 3.14-1.54Q2.95-2.01 2.95-2.56L2.95-2.56L2.95-28.01L8.03-28.01L8.03-5.08L28.67-5.08Z M55.31-16.56L55.31-11.45L39.28-11.45L39.28-16.56L55.31-16.56ZM57.60-5.08L57.60 0L39.28 0Q38.22 0 36.97-0.37Q35.72-0.74 34.66-1.59Q33.59-2.44 32.88-3.80Q32.17-5.16 32.17-7.13L32.17-7.13L32.17-25.45Q32.17-25.98 32.36-26.45Q32.56-26.91 32.90-27.27Q33.24-27.62 33.71-27.81Q34.18-28.01 34.73-28.01L34.73-28.01L57.60-28.01L57.60-22.93L37.25-22.93L37.25-7.13Q37.25-6.13 37.77-5.61Q38.30-5.08 39.32-5.08L39.32-5.08L57.60-5.08Z M84.86-28.01L90.53-28.01L77.27-1.00Q76.95-0.37 76.34 0.01Q75.72 0.39 74.98 0.39L74.98 0.39Q74.26 0.39 73.64 0.01Q73.03-0.37 72.70-1.00L72.70-1.00L59.45-28.01L65.14-28.01L74.98-7.83L84.86-28.01Z M118.16-5.08L118.16 0L99.84 0Q99.14 0 98.33-0.17Q97.52-0.33 96.73-0.68Q95.94-1.04 95.21-1.59Q94.49-2.15 93.94-2.94Q93.38-3.73 93.05-4.78Q92.71-5.82 92.71-7.13L92.71-7.13L92.71-20.88Q92.71-21.58 92.88-22.39Q93.05-23.20 93.40-23.99Q93.75-24.79 94.32-25.51Q94.88-26.23 95.67-26.79Q96.46-27.34 97.50-27.68Q98.54-28.01 99.84-28.01L99.84-28.01L118.16-28.01L118.16-22.93L99.84-22.93Q98.85-22.93 98.32-22.40Q97.79-21.88 97.79-20.84L97.79-20.84L97.79-7.13Q97.79-6.15 98.33-5.62Q98.87-5.08 99.84-5.08L99.84-5.08L118.16-5.08Z M128.09-28.01L128.09-16.56L145.92-16.56L145.92-28.01L151.00-28.01L151.00 0L145.92 0L145.92-11.45L128.09-11.45L128.09 0L123.01 0L123.01-28.01L128.09-28.01Z M179.96-16.56L179.96-11.45L163.93-11.45L163.93-16.56L179.96-16.56ZM182.25-5.08L182.25 0L163.93 0Q162.87 0 161.62-0.37Q160.37-0.74 159.31-1.59Q158.24-2.44 157.53-3.80Q156.82-5.16 156.82-7.13L156.82-7.13L156.82-25.45Q156.82-25.98 157.01-26.45Q157.21-26.91 157.55-27.27Q157.89-27.62 158.36-27.81Q158.83-28.01 159.38-28.01L159.38-28.01L182.25-28.01L182.25-22.93L161.89-22.93L161.89-7.13Q161.89-6.13 162.42-5.61Q162.95-5.08 163.96-5.08L163.96-5.08L182.25-5.08Z M215.14-28.01L215.14-2.17Q215.14-1.62 214.93-1.15Q214.73-0.68 214.38-0.34Q214.04 0 213.57 0.20Q213.11 0.39 212.58 0.39L212.58 0.39Q212.11 0.39 211.63 0.21Q211.15 0.04 210.78-0.35L210.78-0.35L192.23-19.73L192.23 0L187.15 0L187.15-25.84Q187.15-26.62 187.59-27.26Q188.03-27.89 188.71-28.20L188.71-28.20Q189.43-28.50 190.20-28.35Q190.96-28.20 191.50-27.64L191.50-27.64L210.06-8.28L210.06-28.01L215.14-28.01Z M236.00-14.00L250.39 0L243.18 0L231.76-11.45L228.18-11.45L228.18-16.56L231.76-16.56L243.18-28.01L250.39-28.01L236.00-14.00ZM226.15-28.01L226.15 0L221.07 0L221.07-28.01L226.15-28.01Z M282.09-16.68L282.09-11.33Q282.09-8.77 281.21-6.62Q280.33-4.47 278.77-2.91Q277.21-1.35 275.07-0.48Q272.93 0.39 270.41 0.39L270.41 0.39L263.54 0.39Q261.02 0.39 258.87-0.48Q256.72-1.35 255.16-2.91Q253.59-4.47 252.71-6.62Q251.82-8.77 251.82-11.33L251.82-11.33L251.82-16.68Q251.82-19.22 252.71-21.38Q253.59-23.54 255.16-25.09Q256.72-26.64 258.87-27.52Q261.02-28.40 263.54-28.40L263.54-28.40L270.41-28.40Q272.93-28.40 275.07-27.52Q277.21-26.64 278.77-25.09Q280.33-23.54 281.21-21.38Q282.09-19.22 282.09-16.68L282.09-16.68ZM277.01-11.33L277.01-16.68Q277.01-18.18 276.53-19.40Q276.05-20.63 275.19-21.49Q274.32-22.36 273.10-22.84Q271.88-23.32 270.41-23.32L270.41-23.32L263.54-23.32Q262.05-23.32 260.83-22.84Q259.61-22.36 258.73-21.49Q257.85-20.63 257.37-19.40Q256.89-18.18 256.89-16.68L256.89-16.68L256.89-11.33Q256.89-9.82 257.37-8.60Q257.85-7.38 258.73-6.51Q259.61-5.64 260.83-5.17Q262.05-4.69 263.54-4.69L263.54-4.69L270.37-4.69Q271.86-4.69 273.08-5.17Q274.30-5.64 275.18-6.51Q276.05-7.38 276.53-8.60Q277.01-9.82 277.01-11.33L277.01-11.33Z M323.28-16.56L323.28-11.45L307.23-11.45L307.23-16.56L323.28-16.56ZM325.55-28.01L325.55-22.93L305.20-22.93L305.20 0L300.12 0L300.12-25.45Q300.12-25.98 300.31-26.45Q300.51-26.91 300.85-27.27Q301.19-27.62 301.66-27.81Q302.13-28.01 302.68-28.01L302.68-28.01L325.55-28.01Z M358.87-16.68L358.87-11.33Q358.87-8.77 357.99-6.62Q357.11-4.47 355.55-2.91Q353.98-1.35 351.85-0.48Q349.71 0.39 347.19 0.39L347.19 0.39L340.31 0.39Q337.79 0.39 335.64-0.48Q333.50-1.35 331.93-2.91Q330.37-4.47 329.48-6.62Q328.59-8.77 328.59-11.33L328.59-11.33L328.59-16.68Q328.59-19.22 329.48-21.38Q330.37-23.54 331.93-25.09Q333.50-26.64 335.64-27.52Q337.79-28.40 340.31-28.40L340.31-28.40L347.19-28.40Q349.71-28.40 351.85-27.52Q353.98-26.64 355.55-25.09Q357.11-23.54 357.99-21.38Q358.87-19.22 358.87-16.68L358.87-16.68ZM353.79-11.33L353.79-16.68Q353.79-18.18 353.31-19.40Q352.83-20.63 351.96-21.49Q351.09-22.36 349.87-22.84Q348.65-23.32 347.19-23.32L347.19-23.32L340.31-23.32Q338.83-23.32 337.61-22.84Q336.39-22.36 335.51-21.49Q334.63-20.63 334.15-19.40Q333.67-18.18 333.67-16.68L333.67-16.68L333.67-11.33Q333.67-9.82 334.15-8.60Q334.63-7.38 335.51-6.51Q336.39-5.64 337.61-5.17Q338.83-4.69 340.31-4.69L340.31-4.69L347.15-4.69Q348.63-4.69 349.85-5.17Q351.07-5.64 351.95-6.51Q352.83-7.38 353.31-8.60Q353.79-9.82 353.79-11.33L353.79-11.33Z M388.81-28.01L388.81-22.93L377.62-22.93L377.62 0L372.54 0L372.54-22.93L361.33-22.93L361.33-28.01L388.81-28.01Z M421.54-16.68L421.54-11.33Q421.54-8.77 420.66-6.62Q419.79-4.47 418.22-2.91Q416.66-1.35 414.52-0.48Q412.38 0.39 409.86 0.39L409.86 0.39L402.99 0.39Q400.47 0.39 398.32-0.48Q396.17-1.35 394.61-2.91Q393.05-4.47 392.16-6.62Q391.27-8.77 391.27-11.33L391.27-11.33L391.27-16.68Q391.27-19.22 392.16-21.38Q393.05-23.54 394.61-25.09Q396.17-26.64 398.32-27.52Q400.47-28.40 402.99-28.40L402.99-28.40L409.86-28.40Q412.38-28.40 414.52-27.52Q416.66-26.64 418.22-25.09Q419.79-23.54 420.66-21.38Q421.54-19.22 421.54-16.68L421.54-16.68ZM416.46-11.33L416.46-16.68Q416.46-18.18 415.99-19.40Q415.51-20.63 414.64-21.49Q413.77-22.36 412.55-22.84Q411.33-23.32 409.86-23.32L409.86-23.32L402.99-23.32Q401.50-23.32 400.28-22.84Q399.06-22.36 398.18-21.49Q397.30-20.63 396.83-19.40Q396.35-18.18 396.35-16.68L396.35-16.68L396.35-11.33Q396.35-9.82 396.83-8.60Q397.30-7.38 398.18-6.51Q399.06-5.64 400.28-5.17Q401.50-4.69 402.99-4.69L402.99-4.69L409.82-4.69Q411.31-4.69 412.53-5.17Q413.75-5.64 414.63-6.51Q415.51-7.38 415.99-8.60Q416.46-9.82 416.46-11.33L416.46-11.33Z"/></g>
</svg>
</g><g opacity="1" transform="rotate(0 79.481 -43.8291)">
<svg width="174.4797" height="232.6033" x="79.481" y="-43.8291" version="1.1" preserveAspectRatio="none" viewBox="39.95172119140625 20.0345458984375 119.99272155761719 159.9654541015625">
  <g transform="matrix(1 0 0 1 0 0)"><g><path d="M97.9 130.2c-2 0-4.1-.3-6-.8-.3-.1-.5-.4-.4-.7l.1-.3c.3-.9 1.2-1.5 2.1-1.2 2.9.8 6 .7 8.9-.3-.1-4.1-.6-21.9-.6-32.7 0-20 3.2-39.8 9.4-58.8l2.3-7 .4-.3c4.3-2.4 8.8-4.2 13.5-5.5 10.2-2.9 21-3.4 31.3-1.2.7.2 1.2.9 1 1.6-.2.7-.9 1.1-1.6 1-21.7-4.6-39.7 4.6-42.6 6.2l-2 6.1c-6.2 18.7-9.3 38.3-9.3 58 0 12.2.7 34.2.7 34.2l-.7.4c-1.9.9-4.2 1.4-6.5 1.3z" data-color="1" class="icon1"/><path d="M144.2 73.1c-1.8 0-3.6-.2-5.4-.6l-21.2-5.4a2 2 0 0 1-1.4-2.3c.1-.3.2-.6.4-.8l6.3-7.3c1.3-1.5 3.1-2.4 5.1-2.6 5-.4 11.7-.7 14.8.3 3.8 1.2 10.1 6.1 12.3 7.9.4.3.5.9.1 1.3-.6.7-1.6.8-2.3.2-2.9-2.3-8-6.1-10.8-7-2.1-.6-7.1-.7-13.8-.2-1.3.1-2.5.7-3.3 1.7l-5.5 6.4 20 5.1c.1 0 8.1 2.1 14-2.2.6-.4 1.3-.3 1.8.2l.4.4c.3.3.3.8-.1 1.1-3.2 2.6-7.2 3.9-11.4 3.8z" data-color="1" class="icon1"/><path d="M148.1 61.2c-.1 3.4-3 6.1-6.4 5.9-3.4 0-5.4-2.5-5.4-5.9 0-3.4 2.7-6.2 6.1-6.3 3.3.1 5.9 2.8 5.8 6.1-.1.1-.1.2-.1.2z" data-color="1" class="icon1"/><path d="M95.6 178.8c-.1.7-.7 1.2-1.4 1.2h-.1c-14.4-2.6-29.2-16.4-39.8-34.9-11.1-19.4-16.1-41.1-13.8-62.3.1-.7.7-1.2 1.4-1.2.7.1 1.2.8 1.1 1.5-2.3 20.6 2.6 41.7 13.4 60.6 10.2 17.8 24.4 31.1 38 33.7.8.1 1.3.7 1.2 1.4z" data-color="1" class="icon1"/></g></g>
</svg>
</g></svg></svg>